<svg width="439" height="267" viewBox="0 0 439 267" fill="none" xmlns="http://www.w3.org/2000/svg">
<path d="M0 202.435C0 205.365 2.34368 208.001 5.56623 208.001H40.1355C43.0651 208.001 45.7017 205.365 45.7017 202.435V133.59H76.4625C112.204 133.59 141.792 104.001 141.792 67.6736C141.792 32.2255 112.204 2.92957 76.1695 2.92957H5.56623C2.34368 2.92957 0 5.5662 0 8.49579V202.435ZM45.7017 90.8175V45.9946H73.5329C86.1301 45.9946 96.6767 55.3693 96.6767 67.6736C96.6767 80.8568 86.1301 90.8175 73.5329 90.8175H45.7017Z" fill="#303F4D" fill-opacity="0.8"/>
<path fill-rule="evenodd" clip-rule="evenodd" d="M79.4689 208.001H111.694C117.554 208.001 120.776 204.486 122.241 200.97L132.788 177.534H212.473L223.019 200.677C225.656 206.244 227.999 208.001 233.273 208.001H265.791C270.186 208.001 272.529 204.193 270.771 200.384L263.894 185.596C282.274 201.423 306.293 210.931 332.764 210.931H332.764C334.815 210.931 338.33 210.931 341.845 210.638L372.899 263.078C373.778 264.543 375.243 266.007 377.587 266.007H417.136C421.823 266.007 424.167 261.32 421.823 257.219L384.032 198.041C416.257 178.412 438.229 143.843 438.229 105.758C438.229 47.1665 391.356 0 332.764 0C274.172 0 227.591 47.1665 227.591 105.758C227.591 106.364 227.596 106.969 227.606 107.572L179.075 3.22254C178.196 1.46479 176.146 0 174.095 0H171.165C169.115 0 167.064 1.46479 166.185 3.22254L74.4886 200.384C72.7308 204.193 75.0745 208.001 79.4689 208.001ZM150.365 137.691L172.337 89.3527H172.63L194.895 137.691H150.365ZM274.465 105.758C274.465 73.5329 300.831 46.8735 332.764 46.8735C364.989 46.8735 391.356 73.5329 391.356 105.758C391.356 137.691 364.989 164.057 332.764 164.057C300.831 164.057 274.465 137.691 274.465 105.758ZM82.7292 262.784C83.8332 263.888 87.2892 266.48 93.5292 266.48C100.585 266.48 104.857 261.488 104.857 256.544C104.857 250.016 98.9052 247.088 95.1612 245.6C91.3692 244.064 89.9292 242.72 89.9292 240.944C89.9292 239.648 91.2252 238.496 92.9532 238.496C95.4849 238.496 98.4471 240.47 99.482 241.159C99.644 241.267 99.7588 241.344 99.8172 241.376C100.249 241.712 101.113 241.28 101.449 240.752L103.897 237.056C104.089 236.72 104.185 235.856 103.609 235.52C102.169 234.464 98.3292 231.92 93.3372 231.92C85.9452 231.92 82.2492 236.72 82.2492 241.472C82.2492 247.232 87.4332 250.448 91.5612 252.08C94.8252 253.376 96.5052 254.912 96.5052 256.928C96.5052 258.608 95.1132 259.808 93.1932 259.808C90.3692 259.808 87.3164 257.786 86.5507 257.279C86.4954 257.243 86.4521 257.214 86.4216 257.195C86.4006 257.181 86.3857 257.172 86.3772 257.168C86.0412 256.928 85.1292 256.832 84.7452 257.456L82.4892 261.44C82.1052 262.112 82.2492 262.304 82.7292 262.784ZM1.03999 266C0.51199 266 0.127991 265.568 0.127991 265.088V233.312C0.127991 232.832 0.51199 232.4 1.03999 232.4H15.392C21.152 232.4 25.856 237.056 25.856 242.768C25.856 247.184 22.928 250.736 18.752 252.416L25.328 264.608C25.664 265.232 25.328 266 24.512 266H18.128C17.744 266 17.456 265.76 17.36 265.568L10.976 252.848H7.66399V265.088C7.66399 265.568 7.23199 266 6.75199 266H1.03999ZM7.66399 239.264V246.752H14.768C16.736 246.752 18.416 244.928 18.416 242.912C18.416 240.896 16.736 239.264 14.768 239.264H7.66399ZM45.1962 266C44.6682 266 44.2842 265.568 44.2842 265.088V233.312C44.2842 232.832 44.6682 232.4 45.1962 232.4H65.0682C65.5962 232.4 65.9802 232.832 65.9802 233.312V238.544C65.9802 239.024 65.5962 239.456 65.0682 239.456H51.7722V245.408H62.7162C63.1962 245.408 63.6282 245.84 63.6282 246.32V251.552C63.6282 252.08 63.1962 252.464 62.7162 252.464H51.7722V258.944H65.0682C65.5962 258.944 65.9802 259.376 65.9802 259.856V265.088C65.9802 265.568 65.5962 266 65.0682 266H45.1962ZM123.618 266C123.09 266 122.706 265.568 122.706 265.088V233.312C122.706 232.832 123.09 232.4 123.618 232.4H143.49C144.018 232.4 144.402 232.832 144.402 233.312V238.544C144.402 239.024 144.018 239.456 143.49 239.456H130.194V245.408H141.138C141.618 245.408 142.05 245.84 142.05 246.32V251.552C142.05 252.08 141.618 252.464 141.138 252.464H130.194V258.944H143.49C144.018 258.944 144.402 259.376 144.402 259.856V265.088C144.402 265.568 144.018 266 143.49 266H123.618ZM159.327 266H164.607C165.567 266 166.095 265.424 166.335 264.848L168.063 261.008H181.119L182.847 264.8C183.279 265.712 183.663 266 184.527 266H189.855C190.575 266 190.959 265.376 190.671 264.752L175.647 232.448C175.503 232.16 175.167 231.92 174.831 231.92H174.351C174.015 231.92 173.679 232.16 173.535 232.448L158.511 264.752C158.223 265.376 158.607 266 159.327 266ZM170.943 254.48L174.543 246.56H174.591L178.239 254.48H170.943ZM207.524 266C206.996 266 206.612 265.568 206.612 265.088V233.312C206.612 232.832 206.996 232.4 207.524 232.4H221.876C227.636 232.4 232.34 237.056 232.34 242.768C232.34 247.184 229.412 250.736 225.236 252.416L231.812 264.608C232.148 265.232 231.812 266 230.996 266H224.612C224.228 266 223.94 265.76 223.844 265.568L217.46 252.848H214.148V265.088C214.148 265.568 213.716 266 213.236 266H207.524ZM214.148 239.264V246.752H221.252C223.22 246.752 224.9 244.928 224.9 242.912C224.9 240.896 223.22 239.264 221.252 239.264H214.148ZM248.321 249.248C248.321 258.848 256.049 266.48 265.649 266.48C269.921 266.48 274.049 264.992 277.313 261.824C277.649 261.488 277.697 260.864 277.361 260.528L273.617 256.544C273.329 256.208 272.705 256.208 272.369 256.496C270.641 257.984 268.193 258.8 265.937 258.8C260.513 258.8 256.481 254.384 256.481 249.056C256.481 243.68 260.465 239.168 265.889 239.168C268.241 239.168 270.593 240.032 272.369 241.616C272.705 241.952 273.233 241.952 273.569 241.616L277.313 237.728C277.697 237.344 277.697 236.768 277.265 236.384C274.001 233.408 270.449 231.92 265.649 231.92C256.049 231.92 248.321 239.648 248.321 249.248ZM295.978 266C295.497 266 295.065 265.568 295.065 265.088V233.312C295.065 232.832 295.497 232.4 295.978 232.4H301.69C302.218 232.4 302.602 232.832 302.602 233.312V245.408H316.329V233.312C316.329 232.832 316.714 232.4 317.242 232.4H322.953C323.434 232.4 323.866 232.832 323.866 233.312V265.088C323.866 265.568 323.434 266 322.953 266H317.242C316.714 266 316.329 265.568 316.329 265.088V252.464H302.602V265.088C302.602 265.568 302.218 266 301.69 266H295.978Z" fill="url(#paint0_linear)"/>
<defs>
<linearGradient id="paint0_linear" x1="134" y1="82" x2="350" y2="230" gradientUnits="userSpaceOnUse">
<stop stop-color="#EFB33E" stop-opacity="0.9"/>
<stop offset="1" stop-color="#ECC53B" stop-opacity="0.9"/>
</linearGradient>
</defs>
</svg>
